<?xml version="1.0" encoding="UTF-8"?>
<svg version="1.1" xmlns="http://www.w3.org/2000/svg" width="320" height="320">
<path d="M0 0 C105.6 0 211.2 0 320 0 C320 105.6 320 211.2 320 320 C214.4 320 108.8 320 0 320 C0 214.4 0 108.8 0 0 Z " fill="#FEFEFE" transform="translate(0,0)"/>
<path d="M0 0 C1.52863972 -0.00763336 3.05727564 -0.01606285 4.58590698 -0.02522278 C8.71622091 -0.04705622 12.84646086 -0.05595133 16.97682595 -0.06104922 C19.56315934 -0.06470545 22.14947371 -0.07095194 24.73579979 -0.07805061 C33.77520973 -0.10250443 42.81456259 -0.1155886 51.85400391 -0.11914062 C60.25367857 -0.12277477 68.65298763 -0.1526719 77.05255061 -0.19454521 C84.28684262 -0.22933339 91.5210139 -0.24469052 98.75538892 -0.24538666 C103.06613226 -0.24617644 107.37650238 -0.25477692 111.68715858 -0.28338432 C115.74462082 -0.30971269 119.80140417 -0.31168894 123.85891342 -0.29572868 C125.33906101 -0.29392597 126.81924902 -0.30049732 128.29931068 -0.31654739 C137.75981385 -0.41279995 145.27344663 0.90087312 153.7565918 5.30639648 C154.41898015 5.64963235 155.0813685 5.99286821 155.76382923 6.34650517 C168.64801362 13.44886881 179.16153749 22.19151031 183.6315918 36.68139648 C184.03689079 38.21537622 184.4129655 39.75743487 184.7565918 41.30639648 C184.92874207 41.98907089 185.10089233 42.6717453 185.27825928 43.37510681 C185.93910823 47.42488313 185.91240433 51.39905021 185.91772461 55.49609375 C185.92268951 56.41389114 185.92765442 57.33168854 185.93276978 58.27729797 C185.94735476 61.30914059 185.95418877 64.34093081 185.9597168 67.37280273 C185.96547307 69.48925273 185.97123074 71.60570272 185.97698975 73.72215271 C185.98749058 78.16145062 185.99333866 82.60073048 185.99682617 87.04003906 C186.0022964 92.70324653 186.02629691 98.36621182 186.05479813 104.02934361 C186.07351093 108.40393243 186.07863478 112.77846407 186.08016205 117.15308952 C186.0831717 119.23929093 186.09114258 121.32549173 186.10434723 123.41165352 C186.20612697 140.73376012 184.6012848 153.97517326 174.5065918 168.55639648 C160.23616644 182.82682184 143.61456469 184.59183737 124.46137619 184.61135674 C121.54301578 184.61505295 118.6249854 184.63186535 115.70669556 184.65211487 C107.41642396 184.70723324 99.1261063 184.7382346 90.83569336 184.76269531 C85.74714874 184.77860659 80.65884344 184.80885287 75.57042313 184.84745979 C73.64004691 184.85906726 71.70962788 184.86503977 69.77921677 184.86514091 C67.07789951 184.8653339 64.37723996 184.88366544 61.67602539 184.90576172 C60.49441078 184.89889595 60.49441078 184.89889595 59.28892517 184.89189148 C51.06214412 184.9983712 45.09606081 187.39115383 39.1315918 193.24389648 C38.10755915 194.22516403 37.08142741 195.20424458 36.0534668 196.18139648 C35.25585938 196.94516602 35.25585938 196.94516602 34.44213867 197.72436523 C31.49917344 200.48659216 28.44434525 203.11605892 25.3815918 205.74389648 C24.81102051 206.23946045 24.24044922 206.73502441 23.65258789 207.24560547 C13.59655334 215.87073601 13.59655334 215.87073601 5.5065918 215.68139648 C3.67354492 215.66206055 3.67354492 215.66206055 1.8034668 215.64233398 C-1.2434082 215.30639648 -1.2434082 215.30639648 -3.2434082 213.30639648 C-4.89806051 202.02598426 -4.09450639 190.61945552 -3.2434082 179.30639648 C-4.42418945 179.32831055 -5.6049707 179.35022461 -6.8215332 179.37280273 C-20.15516867 179.35228043 -31.77173322 174.6331076 -41.5559082 165.61889648 C-51.03923886 155.42283116 -54.54011664 144.55968829 -54.54980469 130.96582031 C-54.5581282 129.961409 -54.56645172 128.95699768 -54.57502747 127.92214966 C-54.59901658 124.61920227 -54.60788665 121.31645286 -54.61450195 118.01342773 C-54.62347761 115.7018783 -54.63259962 113.39032943 -54.64186096 111.07878113 C-54.65832407 106.23789055 -54.66604604 101.3970689 -54.66894531 96.55615234 C-54.67432219 90.38065688 -54.71198612 84.20581761 -54.75768948 78.03050709 C-54.7875667 73.2561156 -54.79467121 68.48187999 -54.79567146 63.70740318 C-54.79985356 61.43221727 -54.81220612 59.15703002 -54.83318901 56.88193703 C-54.98605638 38.87217018 -53.43114849 25.82044586 -40.3684082 12.37670898 C-28.61224135 1.33160061 -15.49149094 0.00492435 0 0 Z " fill="#DBEEF6" transform="translate(95.243408203125,54.693603515625)"/>
<path d="M0 0 C-1.6626475 17.42057531 -4.37852854 34.70387053 -7 52 C-7.16709473 53.10472656 -7.33418945 54.20945313 -7.50634766 55.34765625 C-7.91636847 58.04499792 -8.33114118 60.74151833 -8.75 63.4375 C-8.86529053 64.18700928 -8.98058105 64.93651855 -9.09936523 65.70874023 C-9.55449059 68.5838508 -10.07713447 71.23140342 -11 74 C-17.29785459 73.05407718 -21.96066973 71.97841864 -27 68 C-26.42713967 56.9267986 -24.72055276 46.11704822 -22.9375 35.1875 C-22.65251131 33.41609334 -22.36800274 31.64460937 -22.08398438 29.87304688 C-21.39484545 25.58112136 -20.69925044 21.29028922 -20 17 C-41.04197615 19.37153722 -41.04197615 19.37153722 -61 26 C-61.99902344 26.4640625 -62.99804688 26.928125 -64.02734375 27.40625 C-71.04430447 30.94769595 -77.96979839 35.42449597 -81 43 C-81.35181343 45.35016395 -81.35181343 45.35016395 -81.3125 47.8125 C-81.32925781 48.62332031 -81.34601563 49.43414062 -81.36328125 50.26953125 C-80.44260437 57.18945751 -76.57879416 62.21925891 -72.5625 67.6875 C-65.0262059 78.36792072 -61.87910071 87.76971327 -63 101 C-63.29369827 102.34262065 -63.61031309 103.68203452 -64 105 C-63.05898437 104.7834375 -62.11796875 104.566875 -61.1484375 104.34375 C-59.90320313 104.0653125 -58.65796875 103.786875 -57.375 103.5 C-56.14523438 103.2215625 -54.91546875 102.943125 -53.6484375 102.65625 C-50.28080418 102.05050867 -47.40232686 101.64081007 -44 102 C-42.14353999 104.78469002 -41.54842185 106.2681416 -40.875 109.4375 C-40.62363281 110.58025391 -40.62363281 110.58025391 -40.3671875 111.74609375 C-40 114 -40 114 -40 118 C-41.65322266 118.4021875 -41.65322266 118.4021875 -43.33984375 118.8125 C-55.52614066 121.91217872 -67.45624566 125.97083044 -78 133 C-81.91032617 133.71822317 -84.23545496 133.44691336 -87.6796875 131.43359375 C-90.17508064 129.68399091 -92.60734188 127.88716697 -95 126 C-92.80408849 122.03046765 -90.50888203 118.2384432 -87.9375 114.5 C-82.01788563 105.53815343 -80.97940977 98.85860536 -82 88 C-82.80109158 84.86506163 -84.13640169 82.62979921 -86 80 C-86.70253906 79.00484375 -87.40507812 78.0096875 -88.12890625 76.984375 C-88.70825928 76.16525635 -88.70825928 76.16525635 -89.29931641 75.32958984 C-97.49032289 63.70095884 -100.70928359 54.26114717 -99 40 C-98.15428992 36.57915022 -96.93326596 33.93281833 -95 31 C-94.55269531 30.30648437 -94.10539063 29.61296875 -93.64453125 28.8984375 C-81.50853526 11.52411616 -60.26770874 4.92881218 -40.34863281 1.37548828 C-27.08276925 -0.7453951 -13.39060155 -0.12035248 0 0 Z " fill="#4F9CC2" transform="translate(239,85)"/>
<path d="M0 0 C25.25802889 -0.560523 48.56368781 0.84786477 72 11 C72 15.84730147 70.99906334 16.75024295 67.875 20.3125 C66.72644531 21.66794922 66.72644531 21.66794922 65.5546875 23.05078125 C63 25 63 25 60.20703125 24.9453125 C59.14871094 24.63335937 58.09039062 24.32140625 57 24 C56.38705078 23.82267334 55.77410156 23.64534668 55.14257812 23.46264648 C52.34228942 22.64452695 49.5514797 21.80126909 46.77539062 20.90429688 C38.07732853 18.32508523 28.99711902 17.82012045 20 17 C21.86558069 29.00052771 23.73204447 41.00091754 25.59985352 53.00109863 C26.46157669 58.53796543 27.32242528 64.07496637 28.18190002 69.61218262 C28.63995684 72.56211263 29.09886369 75.51190992 29.55801392 78.46166992 C29.76801252 79.81203351 29.97763248 81.16245604 30.18685913 82.51293945 C30.47514107 84.37336396 30.76487756 86.23356291 31.0546875 88.09375 C31.21437012 89.12177734 31.37405273 90.14980469 31.53857422 91.20898438 C31.96956305 93.81589671 32.48180256 96.40901279 33 99 C51.315 102.96 51.315 102.96 70 107 C70 112.6832601 67.41420521 114.87592548 63.6328125 118.90625 C60.07987768 121.73172932 57.85923143 121.94585797 53.44140625 121.48046875 C50.52211448 120.90595213 47.64097338 120.24152011 44.7578125 119.5078125 C40.24617983 118.67705861 35.69230787 118.54087794 31.11499023 118.34204102 C26.99799574 118.15630128 23.05531531 117.71445823 19 117 C16.52304558 106.93816338 14.67609962 96.83926473 12.96875 86.625 C12.6890274 84.96748438 12.40903295 83.31001462 12.12878418 81.65258789 C11.54481295 78.19376957 10.96351242 74.73451688 10.38427734 71.27490234 C9.65252386 66.90510957 8.91497805 62.53631923 8.17565918 58.1678009 C3.02189817 27.69886795 3.02189817 27.69886795 1.09375 14.4375 C0.9755188 13.63562256 0.8572876 12.83374512 0.73547363 12.00756836 C0.17104339 7.97438854 -0.11257448 4.07197985 0 0 Z " fill="#203A48" transform="translate(76,85)"/>
<path d="M0 0 C8.62560039 2.42595011 14.10157123 9.82310315 18.52734375 17.15234375 C20.66998816 21.2955474 21.9925087 25.45853923 23 30 C23.17215027 30.68267441 23.34430054 31.36534882 23.52166748 32.06871033 C24.18251643 36.11848665 24.15581254 40.09265372 24.16113281 44.18969727 C24.16609772 45.10749466 24.17106262 46.02529205 24.17617798 46.97090149 C24.19076297 50.00274411 24.19759698 53.03453433 24.203125 56.06640625 C24.20888127 58.18285625 24.21463894 60.29930624 24.22039795 62.41575623 C24.23089878 66.85505414 24.23674686 71.294334 24.24023438 75.73364258 C24.2457046 81.39685005 24.26970512 87.05981534 24.29820633 92.72294712 C24.31691913 97.09753595 24.32204299 101.47206758 24.32357025 105.84669304 C24.32657991 107.93289444 24.33455078 110.01909525 24.34775543 112.10525703 C24.44953517 129.42736363 22.844693 142.66877677 12.75 157.25 C-1.52042536 171.52042536 -18.1420271 173.28544088 -37.29521561 173.30496025 C-40.21357602 173.30865646 -43.1316064 173.32546886 -46.04989624 173.34571838 C-54.34016784 173.40083676 -62.6304855 173.43183811 -70.92089844 173.45629883 C-76.00944306 173.4722101 -81.09774835 173.50245639 -86.18616867 173.54106331 C-88.11654489 173.55267078 -90.04696392 173.55864329 -91.97737503 173.55874443 C-94.67869229 173.55893742 -97.37935184 173.57726895 -100.08056641 173.59936523 C-101.26218102 173.59249947 -101.26218102 173.59249947 -102.46766663 173.585495 C-110.69444768 173.69197472 -116.66053098 176.08475735 -122.625 181.9375 C-123.64903264 182.91876755 -124.67516439 183.8978481 -125.703125 184.875 C-126.50073242 185.63876953 -126.50073242 185.63876953 -127.31445312 186.41796875 C-130.25741836 189.18019568 -133.31224655 191.80966243 -136.375 194.4375 C-136.94557129 194.93306396 -137.51614258 195.42862793 -138.10400391 195.93920898 C-144.00184017 200.99782403 -148.16057291 204.56213663 -156.3125 204.3125 C-157.54613281 204.28800781 -158.77976562 204.26351562 -160.05078125 204.23828125 C-163 204 -163 204 -164 203 C-164.04063832 201.33382885 -164.042721 199.66611905 -164 198 C-162.88625 198.185625 -161.7725 198.37125 -160.625 198.5625 C-155.09380228 198.5625 -152.41709194 195.2675001 -148.6484375 191.57421875 C-145.98682806 188.98719719 -143.21553433 186.68549719 -140.3125 184.375 C-137.09823074 181.78459734 -134.09755873 179.17520703 -131.25 176.1875 C-126.1214136 170.88673084 -120.60786215 168.13771209 -113.20748901 167.85523987 C-111.64992006 167.84071792 -110.09229635 167.83149087 -108.53466797 167.82641602 C-107.68207901 167.819729 -106.82949005 167.81304199 -105.95106506 167.80615234 C-104.10082291 167.79211513 -102.25056357 167.78021685 -100.40029526 167.77020454 C-97.46513428 167.75375463 -94.5300993 167.73051226 -91.59500122 167.70530701 C-83.2499219 167.63466148 -74.90478987 167.5745983 -66.55957031 167.52319336 C-61.45203241 167.4912551 -56.34463792 167.44993797 -51.23721695 167.40299797 C-49.29732997 167.38706114 -47.35740998 167.37470157 -45.41747665 167.36609077 C-27.70320226 167.2863607 -11.65976912 166.41281061 1.80859375 153.3984375 C11.29206624 143.01902197 14.13724759 132.74978554 14.17700195 118.9465332 C14.18685875 117.45016579 14.18685875 117.45016579 14.19691467 115.92356873 C14.21657334 112.6326387 14.2282937 109.34175415 14.23828125 106.05078125 C14.24235678 104.92262686 14.2464323 103.79447247 14.25063133 102.63213158 C14.27146036 96.66076213 14.2857758 90.68941545 14.29516602 84.71801758 C14.30622397 78.56928847 14.34062638 72.42092186 14.38033772 66.27232075 C14.40655271 61.52718967 14.41486221 56.78214437 14.41844749 52.03694725 C14.42330073 49.77127827 14.4348784 47.5056128 14.45348549 45.24001503 C14.47798061 42.0598685 14.47689275 38.88065254 14.4699707 35.70043945 C14.48278076 34.77693695 14.49559082 33.85343445 14.50878906 32.90194702 C14.40584434 19.83304363 8.18518332 9.75925704 0 0 Z " fill="#ABCCDC" transform="translate(257,66)"/>
<path d="M0 0 C4.79857133 0.56418095 9.0189596 1.56067035 13.5625 3.1875 C20.17702896 5.48805621 26.8670757 7.41635099 33.625 9.25 C35.04727905 9.6370813 35.04727905 9.6370813 36.49829102 10.03198242 C40.65117121 11.1487077 44.77506051 12.18855675 49 13 C45.71056552 16.6711436 41.48288407 18.85662634 37.30078125 21.37890625 C36.54152344 21.91386719 35.78226563 22.44882813 35 23 C35 23.66 35 24.32 35 25 C36.4167088 26.31804977 36.4167088 26.31804977 38.28125 27.6015625 C38.95800781 28.09140625 39.63476562 28.58125 40.33203125 29.0859375 C41.04746094 29.59382813 41.76289063 30.10171875 42.5 30.625 C43.57314453 31.3984375 43.57314453 31.3984375 44.66796875 32.1875 C46.44120429 33.46422959 48.21859948 34.73470027 50 36 C48.54528561 39.03881538 47.08915722 41.18214351 44.6875 43.5625 C43.82705078 44.43068359 43.82705078 44.43068359 42.94921875 45.31640625 C41 47 41 47 36 50 C30.06 42.575 30.06 42.575 24 35 C21.08131263 37.91868737 19.28056922 39.86571796 17.25 43.25 C16.82203125 43.95640625 16.3940625 44.6628125 15.953125 45.390625 C15.63859375 45.92171875 15.3240625 46.4528125 15 47 C14.01 46.67 13.02 46.34 12 46 C11.20385742 44.29199219 11.20385742 44.29199219 10.60546875 42.046875 C10.3748877 41.20954834 10.14430664 40.37222168 9.90673828 39.50952148 C9.66938965 38.59887939 9.43204102 37.6882373 9.1875 36.75 C8.66853592 34.83968958 8.14898693 32.92953798 7.62890625 31.01953125 C7.36352051 30.03033691 7.09813477 29.04114258 6.82470703 28.02197266 C6.00792889 25.02905384 5.15121722 22.05092755 4.27734375 19.07421875 C4.00059814 18.12901367 3.72385254 17.18380859 3.4387207 16.20996094 C2.90479699 14.39080771 2.36826251 12.57241828 1.82885742 10.75488281 C1.46884644 9.51303223 1.46884644 9.51303223 1.1015625 8.24609375 C0.88838379 7.52091553 0.67520508 6.7957373 0.45556641 6.04858398 C0 4 0 4 0 0 Z " fill="#203A48" transform="translate(195,158)"/>
<path d="M0 0 C-0.33 1.98 -0.66 3.96 -1 6 C-1.50305664 5.5155542 -2.00611328 5.0311084 -2.52441406 4.53198242 C-5.83464823 2.48348938 -8.829297 2.52272901 -12.609375 2.48828125 C-13.33618469 2.47033005 -14.06299438 2.45237885 -14.81182861 2.43388367 C-17.12449407 2.37986759 -19.43695421 2.3459144 -21.75 2.3125 C-23.3216431 2.27931907 -24.89325914 2.24482868 -26.46484375 2.20898438 C-30.30974746 2.12414672 -34.15459122 2.05729494 -38 2 C-38 1.67 -38 1.34 -38 1 C-25.32056251 -0.01726146 -12.71460452 -0.11427673 0 0 Z " fill="#63A6C7" transform="translate(239,85)"/>
</svg>
